<?xml version="1.0" encoding="UTF-8" standalone="no"?>
<!DOCTYPE svg PUBLIC "-//W3C//DTD SVG 1.1//EN" "http://www.w3.org/Graphics/SVG/1.1/DTD/svg11.dtd">
<svg xmlns="http://www.w3.org/2000/svg" xmlns:xl="http://www.w3.org/1999/xlink" xmlns:dc="http://purl.org/dc/elements/1.1/" version="1.1" viewBox="357 759 1822.6567 226.94535" width="1822.6567" height="226.94535">
  <defs/>
  <metadata> Produced by OmniGraffle 7.17.5\n2020-10-30 16:43:23 +0000</metadata>
  <g id="Canvas_1" stroke-dasharray="none" fill="none" stroke="none" stroke-opacity="1" fill-opacity="1">
    <title>Canvas 1</title>
    <g id="Canvas_1_Layer_1">
      <title>Layer 1</title>
      <g id="Group_13">
        <g id="Graphic_23">
          <path d="M 2125.96 867.1843 C 2125.93 867.0143 2125.91 866.8343 2125.88 866.6643 C 2126.97 866.3443 2128.05 866.0143 2129.15 865.7143 C 2136.17 863.8343 2142.98 861.4343 2149.18 857.5243 C 2158.47 851.6643 2164.42 843.4143 2167.04 832.7643 C 2168.45 827.0243 2168.83 821.1743 2168.42 815.2943 C 2167.3 799.0743 2160.01 786.4943 2146.13 777.8443 C 2140.3 774.2143 2134.01 771.6443 2127.45 769.6843 C 2113.52 765.5443 2099.2 764.2743 2084.78 764.2243 C 2050.23 764.1043 2015.68 764.1843 1981.13 764.1943 C 1980.1 764.1943 1979.06 764.2943 1978.05 764.3443 C 1978.05 766.5243 1978.05 768.3743 1978.05 770.2443 C 1978.82 770.3243 1979.35 770.3643 1979.88 770.4243 C 1984.74 771.0443 1989.66 771.3643 1994.44 772.3543 C 2003.38 774.2043 2007.46 778.7343 2008.54 787.7743 C 2009.05 791.9943 2009.24 796.2743 2009.24 800.5243 C 2009.28 859.0643 2009.27 917.6043 2009.27 976.1443 C 2009.27 977.5043 2009.27 978.8643 2009.27 980.6443 C 2010.84 980.6443 2012.09 980.6443 2013.34 980.6443 C 2039.57 980.6443 2065.8 980.6643 2092.03 980.6243 C 2098.32 980.6143 2104.62 980.5643 2110.89 980.2243 C 2122.23 979.6143 2133.35 977.6743 2143.86 973.1843 C 2165.31 964.0243 2178.2 948.2743 2179.55 924.5343 C 2180.47 908.4143 2174.83 894.6243 2162.42 883.9143 C 2155.37 877.8343 2147.23 873.7143 2138.45 870.8243 C 2134.35 869.4843 2130.14 868.3943 2125.96 867.1843 Z M 769.76 770.3743 C 770.99 770.3743 771.93 770.3643 772.88 770.3743 C 780.02 770.4243 786.27 772.7543 791.41 777.7643 C 794.08 780.3643 796.52 783.2043 799.19 785.8143 C 801.01 787.5943 801.5 789.6043 801.49 792.1143 C 801.43 853.4443 801.44 914.7843 801.44 976.1143 C 801.44 977.4843 801.44 978.8543 801.44 980.1643 C 805.01 980.9643 826.43 980.8043 828.93 979.9143 C 828.93 922.6043 828.93 865.1843 828.93 807.7543 C 829.14 807.6743 829.35 807.5943 829.56 807.5143 C 830.41 808.7843 831.28 810.0543 832.12 811.3343 C 868.41 867.2243 904.74 923.0943 940.9 979.0743 C 943.26 982.7343 945.59 984.5543 950.02 984.0243 C 953.56 983.6043 957.2 983.9343 961.18 983.9343 C 961.18 982.2043 961.18 980.8443 961.18 979.4843 C 961.18 924.1243 961.16 868.7643 961.2 813.4043 C 961.2 806.0443 961.39 798.6943 962.78 791.4243 C 965.15 779.0343 970.75 773.5443 983.22 771.5543 C 986.13 771.0843 989.05 770.6643 992.02 770.2143 C 992.02 768.1743 992.02 766.3943 992.02 764.6543 C 988.99 763.9543 918.08 764.0143 915.57 764.7143 C 915.57 766.4743 915.57 768.2543 915.57 770.1743 C 916.19 770.2743 916.7 770.3743 917.2 770.4443 C 920.37 770.8643 923.55 771.1943 926.71 771.6943 C 936.13 773.2043 942 778.5243 944.32 787.8743 C 945.92 794.3443 946.52 800.9343 946.54 807.5343 C 946.65 850.8443 946.64 894.1443 946.66 937.4543 C 946.66 938.0143 946.46 938.5843 946.24 939.7143 C 945.27 938.2943 944.6 937.3643 943.97 936.4043 C 907.32 879.9843 870.66 823.5643 834.06 767.1043 C 832.7 765.0143 831.3 764.0943 828.71 764.1143 C 810.26 764.2343 791.8 764.1843 773.35 764.1843 C 772.21 764.1843 771.07 764.1843 769.76 764.1843 C 769.76 766.3743 769.76 768.1443 769.76 770.3743 Z M 385.6 980.6543 C 387.18 980.6543 388.42 980.6543 389.67 980.6543 C 405.56 980.6543 421.45 980.7643 437.33 980.6143 C 446.49 980.5243 455.66 980.2743 464.8 979.6243 C 478.79 978.6243 492.42 975.6643 505.5 970.5243 C 534.64 959.0543 555.04 938.9143 565.03 909.0343 C 573.56 883.5143 573 857.8143 564.42 832.4143 C 557.93 813.2043 545.85 798.0643 529.03 786.7343 C 520.13 780.7343 510.5 776.2743 500.34 772.8943 C 481.53 766.6443 462.11 764.3543 442.41 764.2443 C 415.01 764.0943 387.6 764.2043 360.2 764.2143 C 359.16 764.2143 358.12 764.3143 357 764.3743 C 357 766.4943 357 768.3543 357 770.1143 C 361.95 770.8843 366.73 771.3943 371.41 772.4043 C 380.04 774.2543 383.85 778.4443 384.87 787.1843 C 385.38 791.5143 385.56 795.8943 385.56 800.2543 C 385.6 858.8943 385.59 917.5443 385.59 976.1843 C 385.6 977.5143 385.6 978.8743 385.6 980.6543 Z M 1763.75 827.5343 C 1763.4 823.8843 1763.21 820.5943 1762.74 817.3543 C 1761.28 807.2043 1758.07 797.6743 1752.33 789.0943 C 1744.3 777.1143 1733.07 769.3843 1719.64 764.6343 C 1709.39 761.0143 1698.77 759.4743 1687.95 759.1543 C 1672.87 758.7143 1658.18 760.7343 1644.14 766.5143 C 1635.57 770.0443 1627.82 774.8443 1621.32 781.5143 C 1609.79 793.3343 1605.08 807.7543 1605.4 824.0243 C 1605.71 840.1643 1612.22 853.0443 1625.69 862.2043 C 1632.08 866.5543 1639.08 869.6443 1646.36 872.1743 C 1658.57 876.4143 1671.22 878.9043 1683.79 881.7243 C 1694.71 884.1743 1705.56 886.8643 1715.91 891.2543 C 1722.43 894.0143 1728.57 897.3843 1733.77 902.2843 C 1739.24 907.4343 1742.8 913.6443 1743.57 921.1743 C 1744.96 934.8343 1740.91 946.8143 1731.17 956.4343 C 1716.52 970.9043 1698.45 975.9643 1678.35 973.6543 C 1659.16 971.4543 1643.5 962.3543 1631.04 947.6743 C 1623.72 939.0643 1618.28 929.3243 1613.79 919.0143 C 1613.33 917.9543 1612.85 916.8943 1612.33 915.7243 C 1611.03 915.7243 1609.87 915.7243 1608.71 915.7243 C 1607.47 915.7243 1606.24 915.7243 1604.76 915.7243 C 1608.15 939.2343 1611.46 962.2743 1614.78 985.3043 C 1617.44 985.3043 1619.65 985.3043 1621.89 985.3043 C 1622.12 984.2543 1622.31 983.3143 1622.54 982.3843 C 1623.84 977.1043 1627.62 974.2943 1633.05 974.5743 C 1633.9 974.6143 1634.76 974.7143 1635.57 974.9443 C 1640.69 976.3943 1645.85 977.7343 1650.9 979.3843 C 1665.43 984.1243 1680.21 986.6843 1695.57 985.4743 C 1707.12 984.5643 1718.4 982.5743 1729.19 978.2943 C 1742.13 973.1643 1753.45 965.6743 1761.59 954.2043 C 1774.37 936.2143 1776.5 916.9243 1767.21 896.7843 C 1762.79 887.2043 1755.17 880.3443 1746.37 874.7843 C 1738.85 870.0243 1730.7 866.6243 1722.28 863.8343 C 1710.32 859.8743 1697.95 857.5743 1685.68 854.8843 C 1675.59 852.6743 1665.49 850.4643 1655.87 846.5643 C 1651 844.5943 1646.39 842.1843 1642.43 838.6643 C 1638.66 835.3143 1635.94 831.2643 1634.93 826.2943 C 1632.66 815.1543 1635.6 799.5043 1649.73 791.2443 C 1653.1 789.2743 1656.77 787.6443 1660.5 786.4843 C 1671.25 783.1343 1682.32 782.7643 1693.43 784.1043 C 1697.32 784.5743 1701.23 785.3943 1704.97 786.5843 C 1721.77 791.8943 1731.55 803.5743 1735.24 820.5943 C 1735.73 822.8643 1736.08 825.1643 1736.51 827.5643 C 1745.51 827.5343 1754.31 827.5343 1763.75 827.5343 Z M 1556.75 759.2643 C 1556.27 760.7943 1555.9 762.2343 1555.37 763.6143 C 1554 767.1743 1551.44 769.4643 1547.64 770.0043 C 1545.89 770.2543 1543.96 770.3043 1542.28 769.8543 C 1536.73 768.3743 1531.23 766.6943 1525.74 764.9743 C 1513.05 760.9843 1500.22 758.0943 1486.78 759.4343 C 1471.1 760.9943 1456.84 766.2143 1444.85 776.5743 C 1429.11 790.1843 1422.68 807.5743 1425.68 828.1143 C 1427.75 842.2843 1435.47 853.3943 1446.43 862.3143 C 1457.67 871.4543 1470.69 876.7343 1484.74 879.8143 C 1495.04 882.0643 1505.35 884.3043 1515.56 886.9143 C 1524.05 889.0843 1532.2 892.2643 1539.53 897.2143 C 1549.68 904.0643 1554.52 913.5043 1553.44 925.8343 C 1552.42 937.4343 1547.21 946.4943 1537.22 952.6543 C 1532.83 955.3643 1528.09 957.2243 1523.11 958.5243 C 1511.73 961.5043 1500.16 962.0243 1488.52 960.8843 C 1479.23 959.9743 1470.26 957.6643 1461.95 953.2743 C 1447.04 945.3943 1438.19 933.2543 1436.23 916.3443 C 1435.97 914.0643 1435.75 911.7743 1435.52 909.4743 C 1426.44 909.4743 1417.63 909.4743 1408.47 909.4743 C 1408.47 910.7843 1408.39 911.9243 1408.49 913.0643 C 1408.79 916.5643 1409 920.0943 1409.54 923.5643 C 1412.4 941.8743 1420.91 956.8743 1435.87 968.0343 C 1443.82 973.9643 1452.68 978.1043 1462.16 980.8543 C 1481.01 986.3343 1500.16 987.1343 1519.46 983.8743 C 1532.18 981.7343 1544.24 977.6343 1555.16 970.5943 C 1565.55 963.8943 1573.58 955.1443 1578.3 943.5843 C 1582.01 934.5043 1582.96 925.0043 1582.2 915.3243 C 1580.96 899.4443 1574.22 886.4543 1561.03 877.2743 C 1556.43 874.0643 1551.41 871.3443 1546.31 868.9843 C 1535.63 864.0343 1524.22 861.2643 1512.79 858.6443 C 1501.68 856.0943 1490.57 853.5243 1479.99 849.1443 C 1472.75 846.1543 1466 842.3943 1460.25 836.9543 C 1446.22 823.6743 1447.29 801.6143 1457.91 789.2743 C 1463.64 782.6143 1470.78 778.0643 1479.06 775.4743 C 1499.07 769.2343 1517.69 772.8543 1534.68 784.6043 C 1547.69 793.6043 1555.68 806.4643 1560.54 821.3443 C 1561.36 823.8543 1562.01 826.4243 1562.81 829.2143 C 1564.13 829.2143 1565.39 829.2243 1566.66 829.2143 C 1568 829.2043 1569.33 829.1743 1570.91 829.1443 C 1568.46 805.6043 1566.06 782.5243 1563.64 759.2743 C 1561.28 759.2643 1559.18 759.2643 1556.75 759.2643 Z M 1188.3 829.2243 C 1188.17 828.0043 1188.14 827.0443 1187.96 826.1143 C 1186.43 817.8943 1183.95 809.9843 1180.06 802.5643 C 1170.15 783.6343 1154.57 771.4043 1134.57 764.6443 C 1116.63 758.5743 1098.23 757.6343 1079.63 760.7443 C 1055.46 764.7843 1035.57 776.2343 1020.62 795.7643 C 1005.89 815.0143 999.29 837.2443 997.32 861.0843 C 996.51 870.8943 996.89 880.6843 997.92 890.4543 C 999.27 903.2443 1002.05 915.6843 1007.01 927.5743 C 1017.4 952.4643 1034.77 970.3743 1060.45 979.3243 C 1084.5 987.6943 1108.98 987.9643 1133.44 981.0643 C 1154.4 975.1543 1172.09 963.9243 1186.24 947.2743 C 1187.12 946.2443 1187.88 945.1143 1188.37 944.4743 C 1186.43 942.2443 1184.72 940.2643 1182.98 938.2643 C 1179.36 941.4443 1176.09 944.4943 1172.64 947.3443 C 1149.82 966.1943 1123.81 974.2243 1094.35 970.0143 C 1078.5 967.7443 1064.62 961.1743 1053.14 949.8543 C 1042.87 939.7343 1036.17 927.4743 1031.96 913.8343 C 1026.1 894.8343 1024.54 875.4043 1026.62 855.6543 C 1027.85 844.0043 1030.75 832.7943 1035.89 822.2443 C 1043.45 806.7143 1054.7 794.8643 1070.99 788.4843 C 1086.02 782.5943 1101.56 781.7643 1117.17 785.5643 C 1139.63 791.0343 1153.77 805.0843 1159.22 827.6743 C 1159.34 828.1743 1159.53 828.6543 1159.71 829.2343 C 1169.22 829.2243 1178.57 829.2243 1188.3 829.2243 Z M 1253 911.3543 C 1284.8 911.3543 1316.24 911.3543 1347.83 911.3543 C 1356.24 934.5043 1364.62 957.5943 1372.92 980.4243 C 1383.72 980.4243 1394.01 980.4243 1404.82 980.4243 C 1376.57 908.1643 1348.47 836.2743 1320.29 764.1943 C 1315.03 764.1943 1309.93 764.1643 1304.82 764.2043 C 1299.7 764.2443 1300.83 763.5443 1298.87 768.1643 C 1277.01 819.7643 1255.2 871.3943 1233.33 922.9943 C 1228.3 934.8643 1223.25 946.7443 1216.86 957.9743 C 1215.08 961.1143 1213.08 964.1743 1210.85 967.0143 C 1207.7 971.0143 1203.5 973.4143 1198.36 974.0243 C 1196.91 974.1943 1195.48 974.4743 1193.85 974.7243 C 1193.85 976.0843 1193.83 977.2443 1193.86 978.4043 C 1193.88 979.0243 1193.97 979.6443 1194.05 980.4243 C 1215.2 980.4243 1236.24 980.4243 1257.33 980.4243 C 1257.33 978.3443 1257.33 976.5043 1257.33 974.4343 C 1255.9 974.4343 1254.71 974.5843 1253.57 974.4043 C 1250.32 973.8843 1246.98 973.5943 1243.89 972.5543 C 1238.18 970.6343 1235.42 966.2243 1235.84 960.2143 C 1236.01 957.7943 1236.41 955.3143 1237.19 953.0243 C 1239.21 947.0743 1241.46 941.2043 1243.7 935.3343 C 1246.75 927.3643 1249.86 919.4343 1253 911.3543 Z M 627.35 974.5943 C 626.07 974.5343 625.01 974.5543 623.97 974.4143 C 621.12 974.0343 618.21 973.8743 615.46 973.1243 C 608.06 971.1043 604.58 965.5943 606.04 958.0843 C 606.77 954.3443 607.85 950.6243 609.19 947.0543 C 613.26 936.1743 617.53 925.3743 621.73 914.5543 C 622.15 913.4743 622.63 912.4143 623.08 911.3443 C 654.67 911.3443 686.11 911.3443 717.81 911.3443 C 726.2 934.4343 734.58 957.5143 742.9 980.4043 C 749.71 981.0643 772.27 980.8043 774.59 980.0343 C 774.22 979.0443 773.87 978.0543 773.49 977.0743 C 753.63 926.2643 733.77 875.4643 713.91 824.6643 C 706.39 805.4143 698.87 786.1543 691.35 766.9043 C 690.3 764.2043 690.28 764.1943 687.48 764.1843 C 683 764.1643 678.52 764.1643 674.04 764.1843 C 670.05 764.2043 670.68 763.8043 669.17 767.3743 C 650.31 811.9143 631.52 856.4943 612.59 901.0043 C 605.75 917.0843 598.76 933.0943 591.49 948.9843 C 588.84 954.7643 585.43 960.2443 581.94 965.5743 C 578.71 970.5043 573.93 973.4443 567.91 974.0643 C 566.66 974.1943 565.42 974.4243 564.07 974.6243 C 564.07 976.6043 564.07 978.4643 564.07 980.4543 C 585.25 980.4543 606.21 980.4543 627.34 980.4543 C 627.35 978.5143 627.35 976.7343 627.35 974.5943 Z M 1879.39 764.2943 C 1878.85 765.4943 1878.4 766.4443 1877.98 767.4243 C 1858.3 813.9343 1838.69 860.4743 1818.92 906.9343 C 1812.54 921.9243 1805.88 936.8143 1799.03 951.6043 C 1796.72 956.6043 1793.67 961.3043 1790.56 965.8743 C 1787.3 970.6643 1782.59 973.4743 1776.71 974.0943 C 1775.46 974.2243 1774.21 974.4743 1772.92 974.6643 C 1772.92 976.6443 1772.92 978.4943 1772.92 980.4643 C 1794.12 980.4643 1815.07 980.4643 1836.14 980.4643 C 1836.14 978.4243 1836.14 976.5743 1836.14 974.9043 C 1832.22 974.3543 1828.48 974.1343 1824.89 973.2643 C 1816.82 971.2943 1813.27 965.5843 1814.94 957.4343 C 1815.64 954.0043 1816.66 950.6043 1817.89 947.3343 C 1822.06 936.2743 1826.39 925.2643 1830.67 914.2443 C 1831.05 913.2643 1831.49 912.3043 1831.9 911.3543 C 1863.53 911.3543 1894.96 911.3543 1926.61 911.3543 C 1935 934.4643 1943.39 957.5543 1951.7 980.4443 C 1959.57 981.1143 1981.1 980.8343 1983.43 980.0143 C 1955.32 908.0943 1927.21 836.1843 1899.12 764.3043 C 1892.41 764.2943 1886.03 764.2943 1879.39 764.2943 Z" fill="white"/>
        </g>
        <g id="Graphic_22">
          <path d="M 2125.96 867.1843 C 2130.13 868.3943 2134.34 869.4843 2138.46 870.8443 C 2147.24 873.7343 2155.38 877.8643 2162.43 883.9343 C 2174.84 894.6343 2180.48 908.4343 2179.56 924.5543 C 2178.2 948.2843 2165.31 964.0343 2143.87 973.2043 C 2133.37 977.6943 2122.25 979.6343 2110.9 980.2443 C 2104.62 980.5843 2098.33 980.6343 2092.04 980.6443 C 2065.81 980.6843 2039.58 980.6643 2013.35 980.6643 C 2012.1 980.6643 2010.85 980.6643 2009.28 980.6643 C 2009.28 978.8843 2009.28 977.5243 2009.28 976.1643 C 2009.28 917.6243 2009.29 859.0843 2009.25 800.5443 C 2009.25 796.2943 2009.05 792.0143 2008.55 787.7943 C 2007.46 778.7643 2003.38 774.2243 1994.45 772.3743 C 1989.67 771.3843 1984.75 771.0643 1979.89 770.4443 C 1979.36 770.3743 1978.83 770.3343 1978.06 770.2643 C 1978.06 768.3943 1978.06 766.5443 1978.06 764.3643 C 1979.07 764.3143 1980.1 764.2143 1981.14 764.2143 C 2015.69 764.2043 2050.24 764.1243 2084.79 764.2443 C 2099.21 764.2943 2113.53 765.5643 2127.46 769.7043 C 2134.02 771.6543 2140.31 774.2343 2146.14 777.8643 C 2160.02 786.5043 2167.31 799.0843 2168.43 815.3143 C 2168.84 821.1943 2168.45 827.0443 2167.05 832.7843 C 2164.44 843.4243 2158.48 851.6843 2149.19 857.5443 C 2142.99 861.4543 2136.18 863.8543 2129.16 865.7343 C 2128.06 866.0243 2126.98 866.3643 2125.89 866.6843 C 2125.91 866.8343 2125.94 867.0043 2125.96 867.1843 Z M 2038.32 968.4943 C 2039.88 968.4943 2041.03 968.4943 2042.19 968.4943 C 2054.13 968.4943 2066.07 968.6043 2078.01 968.4543 C 2084.71 968.3643 2091.44 968.0743 2098.11 967.4143 C 2106.32 966.6043 2114.23 964.4543 2121.53 960.4343 C 2131.3 955.0643 2137.6 946.9743 2140.38 936.1843 C 2142.35 928.5543 2142.68 920.8043 2141.5 913.0343 C 2140.05 903.5543 2136.1 895.3543 2128.69 889.0443 C 2123.58 884.6843 2117.65 881.8543 2111.31 879.8143 C 2101.82 876.7643 2092.05 875.0843 2082.12 874.7543 C 2068.38 874.2943 2054.63 874.2343 2040.89 874.0243 C 2040.08 874.0143 2039.27 874.1643 2038.34 874.2443 C 2038.32 905.6343 2038.32 936.8243 2038.32 968.4943 Z M 2038.33 861.2043 C 2039.51 861.2043 2040.36 861.2143 2041.2 861.2043 C 2057.29 861.0743 2073.39 860.9843 2089.48 860.8043 C 2098.41 860.7043 2107.1 859.2843 2115.23 855.3943 C 2124.71 850.8643 2131.03 843.6243 2133.71 833.3843 C 2135.49 826.5843 2135.6 819.6843 2134.53 812.7643 C 2132.89 802.2043 2128.24 793.3843 2119.45 787.0043 C 2115.54 784.1643 2111.24 782.0943 2106.67 780.5343 C 2096.85 777.1743 2086.68 776.3543 2076.42 776.3743 C 2065.55 776.3843 2054.68 776.5643 2043.81 776.6743 C 2042.03 776.6943 2040.25 776.6743 2038.32 776.6743 C 2038.33 804.9943 2038.33 832.8843 2038.33 861.2043 Z" fill="black"/>
        </g>
        <g id="Graphic_21">
          <path d="M 769.76 770.3743 C 769.76 768.1443 769.76 766.3743 769.76 764.1843 C 771.06 764.1843 772.2 764.1843 773.35 764.1843 C 791.8 764.1843 810.26 764.2443 828.71 764.1143 C 831.3 764.0943 832.7 765.0043 834.06 767.1043 C 870.66 823.5643 907.31 879.9743 943.97 936.4043 C 944.59 937.3643 945.26 938.2943 946.24 939.7143 C 946.46 938.5843 946.66 938.0143 946.66 937.4543 C 946.65 894.1443 946.66 850.8443 946.54 807.5343 C 946.52 800.9343 945.92 794.3543 944.32 787.8743 C 942 778.5243 936.13 773.2043 926.71 771.6943 C 923.55 771.1843 920.37 770.8543 917.2 770.4443 C 916.69 770.3743 916.19 770.2843 915.57 770.1743 C 915.57 768.2443 915.57 766.4643 915.57 764.7143 C 918.09 764.0243 988.99 763.9543 992.02 764.6543 C 992.02 766.3943 992.02 768.1743 992.02 770.2143 C 989.06 770.6643 986.14 771.0943 983.22 771.5543 C 970.74 773.5543 965.15 779.0443 962.78 791.4243 C 961.39 798.6943 961.2 806.0443 961.2 813.4043 C 961.17 868.7643 961.18 924.1243 961.18 979.4843 C 961.18 980.8443 961.18 982.2043 961.18 983.9343 C 957.2 983.9343 953.56 983.5943 950.02 984.0243 C 945.59 984.5543 943.26 982.7343 940.9 979.0743 C 904.74 923.0943 868.42 867.2243 832.12 811.3343 C 831.29 810.0443 830.41 808.7843 829.56 807.5143 C 829.35 807.5943 829.14 807.6743 828.93 807.7543 C 828.93 865.1743 828.93 922.6043 828.93 979.9143 C 826.43 980.8043 805.01 980.9643 801.44 980.1643 C 801.44 978.8543 801.44 977.4843 801.44 976.1143 C 801.44 914.7843 801.43 853.4443 801.49 792.1143 C 801.49 789.6043 801.01 787.5943 799.19 785.8143 C 796.53 783.2043 794.08 780.3743 791.41 777.7643 C 786.28 772.7543 780.02 770.4243 772.88 770.3743 C 771.93 770.3743 770.99 770.3743 769.76 770.3743 Z" fill="black"/>
        </g>
        <g id="Graphic_20">
          <path d="M 385.6 980.6543 C 385.6 978.8743 385.6 977.5243 385.6 976.1643 C 385.6 917.5243 385.61 858.8743 385.57 800.2343 C 385.57 795.8743 385.39 791.4843 384.88 787.1643 C 383.86 778.4343 380.05 774.2343 371.42 772.3843 C 366.74 771.3843 361.97 770.8643 357.01 770.0943 C 357.01 768.3343 357.01 766.4843 357.01 764.3543 C 358.13 764.2943 359.17 764.1943 360.21 764.1943 C 387.61 764.1843 415.02 764.0743 442.42 764.2243 C 462.12 764.3343 481.54 766.6243 500.35 772.8743 C 510.51 776.2543 520.14 780.7243 529.04 786.7143 C 545.86 798.0543 557.94 813.1943 564.43 832.3943 C 573.02 857.7943 573.58 883.4943 565.04 909.0143 C 555.05 938.8943 534.65 959.0443 505.51 970.5043 C 492.43 975.6543 478.8 978.6043 464.81 979.6043 C 455.68 980.2643 446.5 980.5143 437.34 980.5943 C 421.45 980.7443 405.57 980.6343 389.68 980.6343 C 388.42 980.6543 387.17 980.6543 385.6 980.6543 Z M 414.66 968.2643 C 415.75 968.3443 416.68 968.4843 417.6 968.4743 C 426.98 968.3743 436.37 968.4143 445.75 968.1043 C 456.99 967.7443 468.01 965.8543 478.7 962.3143 C 504.06 953.9043 521.43 937.3443 529.88 911.8043 C 532.67 903.3643 534.23 894.6643 534.9 885.8143 C 536.09 870.1743 535.23 854.7243 530.7 839.5843 C 522.43 811.9843 498.29 784.9643 463.73 779.1043 C 447.75 776.3943 431.7 776.2543 415.59 776.4243 C 415.31 776.4243 415.03 776.6743 414.66 776.8543 C 414.66 840.5943 414.66 904.3243 414.66 968.2643 Z" fill="black"/>
        </g>
        <g id="Graphic_19">
          <path d="M 1763.75 827.5343 C 1754.32 827.5343 1745.51 827.5343 1736.49 827.5343 C 1736.05 825.1343 1735.71 822.8343 1735.22 820.5643 C 1731.53 803.5443 1721.75 791.8643 1704.95 786.5543 C 1701.21 785.3743 1697.3 784.5443 1693.41 784.0743 C 1682.3 782.7443 1671.24 783.1043 1660.48 786.4543 C 1656.75 787.6143 1653.08 789.2443 1649.71 791.2143 C 1635.58 799.4843 1632.65 815.1343 1634.91 826.2643 C 1635.92 831.2343 1638.64 835.2843 1642.41 838.6343 C 1646.37 842.1543 1650.99 844.5643 1655.85 846.5343 C 1665.47 850.4343 1675.57 852.6343 1685.66 854.8543 C 1697.93 857.5443 1710.3 859.8443 1722.26 863.8043 C 1730.68 866.5943 1738.83 869.9943 1746.35 874.7543 C 1755.15 880.3243 1762.77 887.1743 1767.19 896.7543 C 1776.48 916.9043 1774.35 936.1843 1761.57 954.1743 C 1753.42 965.6443 1742.11 973.1343 1729.17 978.2643 C 1718.38 982.5443 1707.1 984.5343 1695.55 985.4443 C 1680.19 986.6543 1665.41 984.0943 1650.88 979.3543 C 1645.82 977.7043 1640.67 976.3643 1635.55 974.9143 C 1634.74 974.6843 1633.87 974.5843 1633.03 974.5443 C 1627.6 974.2643 1623.82 977.0743 1622.52 982.3543 C 1622.29 983.2843 1622.1 984.2243 1621.87 985.2743 C 1619.63 985.2743 1617.41 985.2743 1614.76 985.2743 C 1611.45 962.2543 1608.13 939.2143 1604.74 915.6943 C 1606.22 915.6943 1607.46 915.6943 1608.69 915.6943 C 1609.85 915.6943 1611.02 915.6943 1612.31 915.6943 C 1612.83 916.8643 1613.3 917.9243 1613.77 918.9843 C 1618.26 929.3043 1623.7 939.0343 1631.02 947.6443 C 1643.49 962.3243 1659.15 971.4243 1678.33 973.6243 C 1698.43 975.9243 1716.5 970.8743 1731.15 956.4043 C 1740.89 946.7843 1744.94 934.8043 1743.55 921.1443 C 1742.78 913.6143 1739.22 907.4043 1733.75 902.2543 C 1728.55 897.3543 1722.41 893.9943 1715.89 891.2243 C 1705.54 886.8343 1694.69 884.1443 1683.77 881.6943 C 1671.2 878.8743 1658.55 876.3843 1646.34 872.1443 C 1639.07 869.6143 1632.07 866.5243 1625.67 862.1743 C 1612.2 853.0143 1605.69 840.1343 1605.38 823.9943 C 1605.06 807.7243 1609.77 793.3143 1621.3 781.4843 C 1627.8 774.8243 1635.55 770.0143 1644.12 766.4843 C 1658.16 760.7043 1672.84 758.6943 1687.93 759.1243 C 1698.75 759.4343 1709.37 760.9743 1719.62 764.6043 C 1733.06 769.3543 1744.29 777.0843 1752.31 789.0643 C 1758.05 797.6343 1761.27 807.1743 1762.72 817.3243 C 1763.21 820.5943 1763.39 823.8743 1763.75 827.5343 Z" fill="black"/>
        </g>
        <g id="Graphic_18">
          <path d="M 1556.75 759.2643 C 1559.18 759.2643 1561.28 759.2643 1563.63 759.2643 C 1566.05 782.5143 1568.45 805.5943 1570.9 829.1343 C 1569.32 829.1643 1567.98 829.1843 1566.65 829.2043 C 1565.39 829.2143 1564.12 829.2043 1562.8 829.2043 C 1562 826.4243 1561.35 823.8543 1560.53 821.3343 C 1555.66 806.4443 1547.68 793.5943 1534.67 784.5943 C 1517.68 772.8443 1499.06 769.2243 1479.05 775.4643 C 1470.77 778.0443 1463.63 782.6043 1457.9 789.2643 C 1447.28 801.6143 1446.2 823.6743 1460.24 836.9443 C 1465.99 842.3843 1472.74 846.1443 1479.98 849.1343 C 1490.56 853.5143 1501.67 856.0843 1512.78 858.6343 C 1524.21 861.2543 1535.62 864.0243 1546.3 868.9743 C 1551.4 871.3343 1556.42 874.0543 1561.02 877.2643 C 1574.21 886.4443 1580.95 899.4343 1582.19 915.3143 C 1582.95 924.9843 1582 934.4943 1578.29 943.5743 C 1573.57 955.1343 1565.54 963.8843 1555.15 970.5843 C 1544.23 977.6243 1532.17 981.7243 1519.45 983.8643 C 1500.15 987.1143 1481 986.3143 1462.15 980.8443 C 1452.66 978.0843 1443.81 973.9543 1435.86 968.0243 C 1420.89 956.8743 1412.39 941.8643 1409.53 923.5543 C 1408.99 920.0843 1408.78 916.5643 1408.48 913.0543 C 1408.38 911.9243 1408.46 910.7743 1408.46 909.4643 C 1417.62 909.4643 1426.43 909.4643 1435.51 909.4643 C 1435.75 911.7543 1435.96 914.0443 1436.22 916.3343 C 1438.18 933.2443 1447.03 945.3943 1461.94 953.2643 C 1470.25 957.6543 1479.22 959.9643 1488.51 960.8743 C 1500.15 962.0143 1511.72 961.4943 1523.1 958.5143 C 1528.07 957.2143 1532.82 955.3443 1537.21 952.6443 C 1547.19 946.4743 1552.41 937.4243 1553.43 925.8243 C 1554.52 913.4943 1549.67 904.0543 1539.52 897.2043 C 1532.19 892.2543 1524.04 889.0743 1515.55 886.9043 C 1505.34 884.2943 1495.03 882.0643 1484.73 879.8043 C 1470.69 876.7343 1457.66 871.4543 1446.42 862.3043 C 1435.46 853.3843 1427.74 842.2743 1425.67 828.1043 C 1422.66 807.5643 1429.1 790.1643 1444.84 776.5643 C 1456.83 766.1943 1471.09 760.9743 1486.77 759.4243 C 1500.22 758.0943 1513.04 760.9843 1525.73 764.9643 C 1531.21 766.6843 1536.71 768.3743 1542.27 769.8443 C 1543.96 770.2943 1545.88 770.2343 1547.63 769.9943 C 1551.43 769.4543 1553.99 767.1743 1555.36 763.6043 C 1555.9 762.2343 1556.27 760.7943 1556.75 759.2643 Z" fill="black"/>
        </g>
        <g id="Graphic_17">
          <path d="M 1188.3 829.2243 C 1178.57 829.2243 1169.22 829.2243 1159.74 829.2243 C 1159.55 828.6443 1159.37 828.1643 1159.25 827.6643 C 1153.8 805.0743 1139.66 791.0243 1117.2 785.5543 C 1101.58 781.7543 1086.04 782.5843 1071.02 788.4743 C 1054.72 794.8543 1043.48 806.7043 1035.92 822.2343 C 1030.78 832.7843 1027.89 843.9943 1026.65 855.6443 C 1024.56 875.3943 1026.12 894.8243 1031.99 913.8243 C 1036.2 927.4643 1042.9 939.7343 1053.17 949.8443 C 1064.65 961.1643 1078.53 967.7343 1094.38 970.0043 C 1123.84 974.2243 1149.86 966.1943 1172.67 947.3343 C 1176.11 944.4843 1179.39 941.4443 1183.01 938.2543 C 1184.75 940.2543 1186.46 942.2343 1188.4 944.4643 C 1187.91 945.1143 1187.14 946.2343 1186.27 947.2643 C 1172.12 963.9143 1154.43 975.1443 1133.47 981.0543 C 1109.01 987.9543 1084.53 987.6843 1060.48 979.3143 C 1034.8 970.3743 1017.43 952.4643 1007.04 927.5643 C 1002.08 915.6743 999.29 903.2243 997.95 890.4443 C 996.92 880.6643 996.54 870.8843 997.35 861.0743 C 999.32 837.2343 1005.92 815.0043 1020.65 795.7543 C 1035.6 776.2243 1055.49 764.7743 1079.66 760.7343 C 1098.26 757.6243 1116.66 758.5643 1134.6 764.6343 C 1154.6 771.3943 1170.18 783.6243 1180.09 802.5543 C 1183.98 809.9743 1186.46 817.8843 1187.99 826.1043 C 1188.13 827.0443 1188.17 828.0043 1188.3 829.2243 Z" fill="black"/>
        </g>
        <g id="Graphic_16">
          <path d="M 1253 911.3543 C 1249.86 919.4443 1246.75 927.3643 1243.72 935.3243 C 1241.48 941.1943 1239.23 947.0643 1237.21 953.0143 C 1236.43 955.3043 1236.03 957.7843 1235.86 960.2043 C 1235.44 966.2143 1238.2 970.6243 1243.91 972.5443 C 1247 973.5843 1250.34 973.8743 1253.59 974.3943 C 1254.73 974.5743 1255.92 974.4243 1257.35 974.4243 C 1257.35 976.5043 1257.35 978.3343 1257.35 980.4143 C 1236.26 980.4143 1215.22 980.4143 1194.07 980.4143 C 1193.99 979.6343 1193.89 979.0143 1193.88 978.3943 C 1193.85 977.2343 1193.87 976.0743 1193.87 974.7143 C 1195.49 974.4543 1196.93 974.1843 1198.38 974.0143 C 1203.52 973.4043 1207.73 971.0043 1210.87 967.0043 C 1213.1 964.1643 1215.09 961.1043 1216.88 957.9643 C 1223.26 946.7343 1228.32 934.8543 1233.35 922.9843 C 1255.22 871.3843 1277.02 819.7543 1298.89 768.1543 C 1300.85 763.5343 1299.72 764.2343 1304.84 764.1943 C 1309.94 764.1543 1315.05 764.1843 1320.31 764.1843 C 1348.49 836.2643 1376.59 908.1543 1404.84 980.4143 C 1394.03 980.4143 1383.74 980.4143 1372.94 980.4143 C 1364.65 957.5843 1356.26 934.4943 1347.85 911.3443 C 1316.24 911.3543 1284.8 911.3543 1253 911.3543 Z M 1304.3 790.8043 C 1304.01 790.7943 1303.72 790.7943 1303.43 790.7843 C 1288.53 826.3843 1273.64 861.9843 1258.58 897.9743 C 1286.8 897.9743 1314.42 897.9743 1342.53 897.9743 C 1329.72 862.0743 1317.01 826.4443 1304.3 790.8043 Z" fill="black"/>
        </g>
        <g id="Graphic_15">
          <path d="M 627.35 974.5943 C 627.35 976.7343 627.35 978.5143 627.35 980.4743 C 606.22 980.4743 585.26 980.4743 564.08 980.4743 C 564.08 978.4743 564.08 976.6243 564.08 974.6443 C 565.42 974.4443 566.66 974.2143 567.92 974.0843 C 573.94 973.4643 578.72 970.5243 581.95 965.5943 C 585.45 960.2643 588.86 954.7843 591.5 949.0043 C 598.77 933.1143 605.76 917.1043 612.6 901.0243 C 631.53 856.5143 650.32 811.9343 669.18 767.3943 C 670.69 763.8243 670.06 764.2243 674.05 764.2043 C 678.53 764.1843 683.01 764.1843 687.49 764.2043 C 690.29 764.2143 690.3 764.2243 691.36 766.9243 C 698.88 786.1743 706.4 805.4343 713.92 824.6843 C 733.78 875.4943 753.64 926.2943 773.5 977.0943 C 773.88 978.0743 774.23 979.0643 774.6 980.0543 C 772.28 980.8143 749.72 981.0843 742.91 980.4243 C 734.59 957.5343 726.21 934.4543 717.82 911.3643 C 686.11 911.3643 654.68 911.3643 623.09 911.3643 C 622.64 912.4343 622.16 913.4943 621.74 914.5743 C 617.54 925.4043 613.27 936.2043 609.2 947.0743 C 607.86 950.6443 606.78 954.3643 606.05 958.1043 C 604.59 965.6143 608.07 971.1243 615.47 973.1443 C 618.22 973.8943 621.13 974.0543 623.98 974.4343 C 625.01 974.5543 626.06 974.5343 627.35 974.5943 Z M 712.58 898.0243 C 699.73 862.0043 686.99 826.2843 674.25 790.5743 C 674.01 790.5943 673.78 790.6043 673.54 790.6243 C 658.6 826.3243 643.66 862.0343 628.59 898.0343 C 656.78 898.0243 684.44 898.0243 712.58 898.0243 Z" fill="black"/>
        </g>
        <g id="Graphic_14">
          <path d="M 1879.39 764.2943 C 1886.03 764.2943 1892.41 764.2943 1899.12 764.2943 C 1927.22 836.1743 1955.33 908.0843 1983.43 980.0043 C 1981.1 980.8243 1959.57 981.1043 1951.7 980.4343 C 1943.39 957.5343 1935 934.4543 1926.61 911.3443 C 1894.96 911.3443 1863.53 911.3443 1831.9 911.3443 C 1831.49 912.2943 1831.05 913.2543 1830.67 914.2343 C 1826.39 925.2543 1822.06 936.2643 1817.89 947.3243 C 1816.66 950.6043 1815.64 954.0043 1814.94 957.4243 C 1813.26 965.5743 1816.81 971.2843 1824.89 973.2543 C 1828.48 974.1343 1832.22 974.3443 1836.14 974.8943 C 1836.14 976.5643 1836.14 978.4143 1836.14 980.4543 C 1815.07 980.4543 1794.12 980.4543 1772.92 980.4543 C 1772.92 978.4943 1772.92 976.6343 1772.92 974.6543 C 1774.21 974.4543 1775.46 974.2143 1776.71 974.0843 C 1782.59 973.4643 1787.3 970.6643 1790.56 965.8643 C 1793.67 961.2943 1796.71 956.5943 1799.03 951.5943 C 1805.87 936.8043 1812.54 921.9243 1818.92 906.9243 C 1838.69 860.4543 1858.3 813.9143 1877.98 767.4143 C 1878.4 766.4443 1878.85 765.4943 1879.39 764.2943 Z M 1837.39 897.9643 C 1846.46 898.7443 1918.62 898.3743 1921.17 897.4943 C 1908.46 861.8643 1895.75 826.2343 1883.04 790.6043 C 1882.8 790.5943 1882.57 790.5843 1882.33 790.5743 C 1867.4 826.2543 1852.47 861.9343 1837.39 897.9643 Z" fill="black"/>
        </g>
      </g>
    </g>
  </g>
</svg>
