<svg xmlns="http://www.w3.org/2000/svg" viewBox="0 0 371.81 37.09"><defs><style>.cls-1{fill:#fff;}</style></defs><title>logo-white</title><g id="Layer_2" data-name="Layer 2"><g id="Layer_1-2" data-name="Layer 1"><path class="cls-1" d="M12.19.91H1.61A1.62,1.62,0,0,0,0,2.54V34.1a1.61,1.61,0,0,0,1.61,1.62H12.19C22.72,35.72,31,28.06,31,18.27S22.72.91,12.19.91ZM26,18.27C26,26,20,31.58,11.77,31.58H5.91a1.53,1.53,0,0,1-1.57-1.49V7.22A2.22,2.22,0,0,1,6.61,5.06h5.16C20,5.06,26,10.62,26,18.27Z"/><path class="cls-1" d="M164.73,28.85a2.1,2.1,0,0,0-1.56.46,14.41,14.41,0,0,1-9.55,3.54c-8.11,0-14.22-5.84-14.22-13.6s6.11-13.69,14.22-13.69A14.53,14.53,0,0,1,163.14,9a2.12,2.12,0,0,0,1.67.49,2.16,2.16,0,0,0,1.13-3.79,17.93,17.93,0,0,0-12.32-4.35c-10.79,0-19.24,7.88-19.25,17.93s8.45,17.85,19.24,17.85A18.13,18.13,0,0,0,166,32.55a2.12,2.12,0,0,0,.67-1.94A2.15,2.15,0,0,0,164.73,28.85Z"/><path class="cls-1" d="M237.83,15.62c-5.51-1.57-7.28-3.09-7.28-6.27,0-1.56.7-5.2,7.12-5.2A14.24,14.24,0,0,1,244.4,6a2.05,2.05,0,0,0,1.72.22,2.17,2.17,0,0,0,.5-3.95A18.11,18.11,0,0,0,237.71,0c-8.24,0-12,4.81-12,9.29,0,6.31,4.92,8.41,10.42,10.17,6.71,2,8.86,3.67,8.86,7,0,3-3.06,5.24-7.13,5.24a13.43,13.43,0,0,1-8.41-3.12,2.24,2.24,0,0,0-1.91-.45A2.08,2.08,0,0,0,226,30.62a2.21,2.21,0,0,0,.72,1.22,17.25,17.25,0,0,0,11.15,3.94c6.78,0,12.1-4.1,12.1-9.33C249.93,20.49,245.5,18,237.83,15.62Z"/><path class="cls-1" d="M276.48,15.62c-5.51-1.57-7.28-3.1-7.28-6.27,0-1.56.69-5.2,7.11-5.2A14.3,14.3,0,0,1,283.05,6a2,2,0,0,0,1.72.22,2.17,2.17,0,0,0,.5-3.95A18.11,18.11,0,0,0,276.36,0c-8.24,0-12,4.81-12,9.29,0,6.31,4.92,8.41,10.42,10.17,6.71,2,8.86,3.67,8.86,7,0,3-3.06,5.24-7.13,5.24a13.4,13.4,0,0,1-8.41-3.12,2.21,2.21,0,0,0-1.91-.45,2.07,2.07,0,0,0-1.59,2.5,2.15,2.15,0,0,0,.72,1.23,17.23,17.23,0,0,0,11.15,3.94c6.78,0,12.1-4.1,12.1-9.33C288.58,20.49,284.15,18,276.48,15.62Z"/><path class="cls-1" d="M366.87,18a9,9,0,0,0,3.88-7.41c0-5.77-4.55-9.49-11.58-9.49H348.28a1.58,1.58,0,0,0-1.6,1.56V34.33a1.58,1.58,0,0,0,1.6,1.56h10.79c7.74,0,12.74-3.89,12.74-9.91A8.58,8.58,0,0,0,366.87,18Zm-7.33-1.79H351V5.62a.37.37,0,0,1,.38-.35h7.76c4.54,0,7,1.93,7,5.42S363.72,16.19,359.54,16.19Zm-5.22,4.15H359c5.12,0,8.3,2.13,8.3,5.56,0,3.64-3.06,5.89-8,5.89h-7.94a.38.38,0,0,1-.39-.35V23.53A3.27,3.27,0,0,1,354.32,20.34Z"/><path class="cls-1" d="M61.23,1.7a2.18,2.18,0,0,0-3.67-.41,2.13,2.13,0,0,0-.41.58L42.69,32.65a1.89,1.89,0,0,0-.16.9,2.09,2.09,0,0,0,3.11,1.91,2.07,2.07,0,0,0,1-1L49.22,29a5.23,5.23,0,0,1,3-1.92H64.75a5.28,5.28,0,0,1,4.89,2.86l2.12,4.58a2.07,2.07,0,0,0,1,1,2.1,2.1,0,0,0,1,.24,2.19,2.19,0,0,0,.75-.13,2,2,0,0,0,1.35-2,2,2,0,0,0-.16-.94ZM52,22.93l4.42-9.83,2.72-6,7.22,15.79Z"/><path class="cls-1" d="M197.71,1.7A2.18,2.18,0,0,0,194,1.29a2.37,2.37,0,0,0-.41.58L179.18,32.65a1.9,1.9,0,0,0-.17.9,2.16,2.16,0,0,0,4.1.92L185.7,29a5.26,5.26,0,0,1,3-1.92h12.53a5.31,5.31,0,0,1,4.9,2.86l2.12,4.58a2.07,2.07,0,0,0,1,1,2.09,2.09,0,0,0,1,.24,2.11,2.11,0,0,0,.75-.13,2,2,0,0,0,1.35-2,2,2,0,0,0-.16-.94ZM188.5,22.93l4.42-9.83,2.71-6,7.22,15.79Z"/><path class="cls-1" d="M319.63,1.7A2.18,2.18,0,0,0,316,1.29a2.13,2.13,0,0,0-.41.58L301.09,32.65a1.89,1.89,0,0,0-.16.9A2.09,2.09,0,0,0,304,35.46a2.07,2.07,0,0,0,1-1L307.62,29a5.26,5.26,0,0,1,3-1.92h12.53A5.28,5.28,0,0,1,328,29.9l2.12,4.58a2.11,2.11,0,0,0,1,1,2.16,2.16,0,0,0,1,.24,2.19,2.19,0,0,0,.75-.13,2,2,0,0,0,1.35-2,2,2,0,0,0-.16-.94Zm-9.22,21.23,4.42-9.83,2.72-6,7.22,15.79Z"/><path class="cls-1" d="M118.06.7a2.15,2.15,0,0,0-2.15,2.14V15.25c-6.11-11-23.28-15-23.28-15h0a2.52,2.52,0,0,0-.55-.08h-.27A1.75,1.75,0,0,0,90.06,2V33.44a2.1,2.1,0,0,0,2.12,2.08,2.13,2.13,0,0,0,2.12-2.13l.11-25.72V5.14c11.3,2.38,17.56,11,20.11,15.53,1.4,2.4,1.37,9,1.37,6.62h0v1l0,0v.22l0,0v4.91a2.15,2.15,0,0,0,4.29-.05V2.79A2.12,2.12,0,0,0,118.06.7Z"/></g></g></svg>